<?xml version="1.0" standalone="no"?>
<!DOCTYPE svg PUBLIC "-//W3C//DTD SVG 1.1//EN" "http://www.w3.org/Graphics/SVG/1.1/DTD/svg11.dtd" >
<svg xmlns="http://www.w3.org/2000/svg">
<metadata>
Created by FontForge 20120731 at Tue Jan  5 10:52:49 2016
 By Ads
</metadata>
<defs>
<font id="iconfont" horiz-adv-x="1025" >
  <font-face 
    font-family="iconfont"
    font-weight="500"
    font-stretch="normal"
    units-per-em="1024"
    panose-1="2 0 6 3 0 0 0 0 0 0"
    ascent="896"
    descent="-128"
    x-height="792"
    bbox="34 -65 974 848"
    underline-thickness="50"
    underline-position="-100"
    unicode-range="U+0078-E63D"
  />
<missing-glyph horiz-adv-x="374" 
d="M34 0v682h272v-682h-272zM68 34h204v614h-204v-614z" />
    <glyph glyph-name=".notdef" horiz-adv-x="374" 
d="M34 0v682h272v-682h-272zM68 34h204v614h-204v-614z" />
    <glyph glyph-name=".null" horiz-adv-x="0" 
 />
    <glyph glyph-name="nonmarkingreturn" horiz-adv-x="341" 
 />
    <glyph glyph-name="x" unicode="x" horiz-adv-x="1001" 
d="M281 543q-27 -1 -53 -1h-83q-18 0 -36.5 -6t-32.5 -18.5t-23 -32t-9 -45.5v-76h912v41q0 16 -0.5 30t-0.5 18q0 13 -5 29t-17 29.5t-31.5 22.5t-49.5 9h-133v-97h-438v97zM955 310v-52q0 -23 0.5 -52t0.5 -58t-10.5 -47.5t-26 -30t-33 -16t-31.5 -4.5q-14 -1 -29.5 -0.5
t-29.5 0.5h-32l-45 128h-439l-44 -128h-29h-34q-20 0 -45 1q-25 0 -41 9.5t-25.5 23t-13.5 29.5t-4 30v167h911zM163 247q-12 0 -21 -8.5t-9 -21.5t9 -21.5t21 -8.5q13 0 22 8.5t9 21.5t-9 21.5t-22 8.5zM316 123q-8 -26 -14 -48q-5 -19 -10.5 -37t-7.5 -25t-3 -15t1 -14.5
t9.5 -10.5t21.5 -4h37h67h81h80h64h36q23 0 34 12t2 38q-5 13 -9.5 30.5t-9.5 34.5q-5 19 -11 39h-368zM336 498v228q0 11 2.5 23t10 21.5t20.5 15.5t34 6h188q31 0 51.5 -14.5t20.5 -52.5v-227h-327z" />
    <glyph glyph-name="uniE602" unicode="&#xe602;" 
d="M371 227q-6 -1 -13 -2t-13.5 -2t-12.5 -1.5t-11 -0.5t-9 -0.5t-6 -0.5h-2q1 2 2 8t2 8.5t2 8.5t2.5 9t3 8t3.5 8.5t4 7.5t5 8t6 7l99 19zM341 607l38 -3l1 -9h-49v-1q0 -29 -20.5 -49t-49 -20t-48.5 20t-20 49v5h-14q3 31 26.5 52.5t55.5 21.5q29 0 51.5 -18.5
t28.5 -47.5zM64 325l11 -324h127v37l-52 6l41 263l66 78l67 -31l71 -9q-56 -14 -106 -33l-45 -119l-30 -4l18 -117h174q8 -11 18 -20q50 -51 121.5 -51t122.5 51q4 5 8.5 10t8.5 10h274v323l-43 -1q4 3 9 6t8.5 5.5t9 5.5t8 4.5t8.5 5.5v82l-168 -103q-148 219 -332 369
q-1 -1 -7.5 -4.5t-10.5 -5.5l259 -368q-73 -7 -130.5 -14.5t-107.5 -16.5l2 15l-120 40l-105 92l-102 2zM604.5 232.5q11.5 -11.5 18 -27t6.5 -31.5q0 -35 -24 -59q-12 -12 -27 -18.5t-32 -6.5q-35 0 -59 25q-8 7 -13.5 16.5t-8.5 20t-3 22t3 22t8.5 20t13.5 16.5
q11 12 26.5 18.5t32.5 6.5t32 -6.5t26.5 -18z" />
    <glyph glyph-name="uniE603" unicode="&#xe603;" 
d="M792 -62h-560q-43 0 -72.5 30t-29.5 72v535q0 28 13.5 51.5t37 37t51.5 13.5h51q0 22 14.5 48t42 50.5t73 40.5t99.5 16q47 0 86.5 -11t65.5 -27.5t44 -37.5t25.5 -41t7.5 -38h52q28 0 51.5 -13.5t37 -37t13.5 -51.5v-535q0 -17 -5 -32.5t-14.5 -28t-22.5 -22
t-28.5 -14.5t-32.5 -5zM512 781q-50 0 -87 -11t-55.5 -28t-27 -33.5t-8.5 -31.5h356q0 9 -4 20t-12.5 22.5t-23 22.5t-33.5 20t-46 14t-59 5zM844 575q0 21 -14.5 36t-36.5 15h-52v-153h-51v153h-356v-153h-51v153h-51q-22 0 -36.5 -15t-14.5 -36v-433h663v433zM844 91h-663
v-51q0 -21 14.5 -36t36.5 -15h561q22 0 36.5 15t14.5 36v51z" />
    <glyph glyph-name="uniE604" unicode="&#xe604;" 
d="M508 245q-88 72 -156 156q-15 19 -24.5 33t-17 30.5t-5.5 31t13 25.5l-222 222q-13 -16 -22 -42.5t-8.5 -77.5t19 -110.5t73 -144t141.5 -173.5q67 -68 132 -118.5t117 -78t100.5 -42.5t84 -17t64.5 2.5t46 12.5t26 17l-217 217q-9 -9 -19.5 -11.5t-22 0.5t-28.5 13.5
t-33 22.5t-41 32zM947 97l-169 169q-5 5 -11.5 7.5t-12.5 2.5t-12.5 -2.5t-11.5 -7.5l-61 -61l217 -218l61 62h1q10 11 9.5 24.5t-10.5 23.5zM396 599q4 4 6.5 9t3.5 10.5t0 10.5t-3.5 9.5t-6.5 8.5l-174 174q-5 5 -11.5 7.5t-12.5 2.5t-12.5 -2.5t-11.5 -7.5l-61 -61
l222 -222l2 2l5 6l8 8q5 4 10.5 9t10.5 10t9.5 10t7.5 9l6 5z" />
    <glyph glyph-name="uniE605" unicode="&#xe605;" 
d="M709 -65h-458q-50 0 -86 35t-36 84v599q0 49 36 84t86 35v59h61v-59h124v59h61v-59h151v59h61v-59q51 0 86.5 -35t35.5 -84v-599q0 -49 -35.5 -84t-86.5 -35zM770 653q0 24 -18 41.5t-43 17.5h-458q-25 0 -43 -17.5t-18 -41.5v-599q0 -25 18 -42.5t43 -17.5h458
q25 0 43 17.5t18 42.5v599zM679 117h-397q-6 0 -12 2.5t-10 6.5t-6.5 9.5t-2.5 11.5q0 12 9 20.5t22 8.5h397q12 0 21 -8.5t9 -21t-9 -21t-21 -8.5zM679 295h-397q-6 0 -12 2.5t-10 6.5t-6.5 9.5t-2.5 11.5q0 8 4.5 15t11.5 11t15 4h397q8 0 15 -4t11 -11t4 -15
q0 -12 -9 -21t-21 -9zM679 474h-397q-13 0 -22 8.5t-9 21.5q0 5 1.5 9.5t4.5 8t7 6.5t8.5 4.5t9.5 1.5h397q8 0 15 -4t11 -11t4 -15t-4 -15t-11 -11t-15 -4z" />
    <glyph glyph-name="uniE606" unicode="&#xe606;" 
d="M840 -7h-721v719h263v55h-280q-10 0 -19 -5t-14 -14t-5 -20v-751q0 -16 11 -27.5t27 -11.5h755q8 0 15 3t12.5 8.5t8.5 12.5t3 15v285h-56v-269zM564 192h-243v245l383 384q5 5 11.5 8t13.5 3q9 1 17 -2t14 -9l188 -188q12 -12 12 -28q0 -4 -1 -8t-2.5 -7.5t-3.5 -7
t-5 -5.5zM372 243h171l361 362l-172 172l-360 -361v-173z" />
    <glyph glyph-name="uniE607" unicode="&#xe607;" 
d="M334 674h587q14 0 23.5 7t11.5 16.5t0 19.5t-11.5 17t-23.5 7h-587q-14 0 -23 -7t-11.5 -17t-0.5 -19.5t11.5 -16.5t23.5 -7zM126 767q-17 0 -31 -8t-22.5 -22t-8.5 -31q0 -26 18 -43.5t43.5 -17.5t43.5 17.5t18 43t-18 43.5t-43 18zM921 418h-587q-14 0 -23 -6.5
t-11.5 -16.5t-0.5 -19.5t11.5 -16.5t23.5 -7h587q23 0 32.5 16.5t0 33t-32.5 16.5zM126 445q-26 0 -44 -18t-18 -43q0 -17 8.5 -31t22.5 -22.5t31 -8.5q25 0 43 18t18 44q0 6 -1.5 12t-3.5 11.5t-5.5 10.5t-7.5 9t-9 7.5t-10.5 5.5t-11.5 3.5t-12 1.5zM921 96h-587
q-8 0 -14.5 -2.5t-10.5 -6t-7 -8.5t-3.5 -10.5t0 -11t3.5 -10.5t7 -9t10.5 -6t14.5 -2h587v66zM126 123q-17 0 -31 -8.5t-22.5 -22.5t-8.5 -31q0 -25 18 -43t43.5 -18t43.5 18t18 43q0 7 -1.5 14t-4.5 13t-7.5 11.5t-9.5 9.5t-11 7t-13 5t-14 2z" />
    <glyph glyph-name="uniE608" unicode="&#xe608;" 
d="M930 273h-168q-5 0 -10.5 2.5t-9 6t-6 9t-2.5 10.5q0 12 8.5 20t19.5 8h168q5 0 10.5 -2t9 -6t6 -9t2.5 -11q0 -7 -4 -13.5t-10.5 -10.5t-13.5 -4zM930 441h-224q-11 0 -19.5 8t-8.5 20q0 7 4 13.5t10.5 10.5t13.5 4h224q7 0 13.5 -4t10.5 -10.5t4 -14t-4 -14t-10.5 -10
t-13.5 -3.5zM930 608h-224q-5 0 -10.5 2.5t-9 6t-6 9t-2.5 10.5q0 12 8.5 20t19.5 8h224q11 0 19.5 -8t8.5 -20q0 -7 -4 -13.5t-10.5 -10.5t-13.5 -4zM678 217v-114q0 -70 -49 -119t-118 -49h-279q-46 0 -84.5 22.5t-61 61t-22.5 84.5v114q0 55 31.5 98t81.5 60
q-27 37 -42 82.5t-15 94.5q0 116 73.5 198t177.5 82t178 -82t74 -198q0 -100 -58 -177q50 -17 81.5 -60t31.5 -98zM567 552.5q0 92.5 -57.5 158t-138.5 65.5t-138 -65.5t-57 -158.5q0 -36 10 -70t28 -61.5t42 -48t54 -32t61 -11.5q81 0 138.5 65.5t57.5 158zM623 204
q0 44 -30 77.5t-76 43.5q-31 -25 -68.5 -38.5t-77.5 -13.5q-80 0 -145 52q-46 -10 -76 -43.5t-30 -77.5v-87q0 -52 40 -89t97 -37h229q37 0 68.5 17t50 46t18.5 63v87zM762 162h168q3 0 7 -1t7 -3t5.5 -4.5t4.5 -5.5t3 -6.5t1 -7.5t-1 -7.5t-3 -6.5t-4.5 -6t-5.5 -4.5
t-7 -2.5t-7 -1h-168q-11 0 -19.5 8t-8.5 19.5t8.5 20t19.5 8.5z" />
    <glyph glyph-name="uniE609" unicode="&#xe609;" 
d="M883 110q-2 1 -5 1h-422l-19 71l355 26q10 1 17 8.5t7 16.5l68 376v8q-1 10 -8.5 16.5t-17.5 6.5h-542l-28 103q0 10 -7.5 17t-17.5 7h-173q-6 0 -12 -3t-9.5 -9t-3.5 -12t2 -10.5t5.5 -7.5t8 -5t9.5 -2h152l161 -607h-48h-3q-1 0 -2 -1q-5 1 -9 1q-37 0 -63.5 -25.5
t-26.5 -61.5q0 -14 4.5 -27t13 -24t19.5 -19t24.5 -12t28.5 -4q37 0 63 25t26 61q0 21 -10 40h12q3 -1 7 0h355q-10 -19 -10 -40q0 -36 26 -61t63.5 -25t63.5 25t26 61q0 34 -23 58.5t-57 27.5zM341 -23q-14 0 -25 6.5t-17.5 17t-6.5 23.5q0 20 14 33.5t34.5 13.5t35 -13.5
t14.5 -33t-14.5 -33.5t-34.5 -14zM424 231l-95 359h499l-60 -334zM873.5 -23q-20.5 0 -34.5 14t-14 33q0 13 6.5 24t17.5 17t25 6q20 0 34 -13.5t14 -33t-14 -33.5t-34.5 -14z" />
    <glyph glyph-name="uniE60A" unicode="&#xe60a;" 
d="M104 339l369 -369q34 -33 82.5 -33t81.5 33l288 287q9 10 16 21t11 23.5t5.5 25t0 25t-5.5 25t-11 23.5t-16 21l-370 368q-4 5 -13.5 15.5t-12.5 13t-9.5 7.5t-12.5 6t-15 1h-375q-14 0 -26.5 -7t-19.5 -19.5t-7 -27.5v-374q0 -5 0.5 -9t2 -8t2.5 -7.5t4 -7t5 -6
t5.5 -6.5t6.5 -6l6 -8zM884 298l-287 -287q-17 -17 -41.5 -17t-41.5 17l-45 39l373 377l44 -47q11 -11 14.5 -26t-1 -30t-15.5 -26zM113 752q0 11 10 20.5t21 9.5h321q15 0 49 -33l292 -286l-373 -373l-289 290q-12 13 -21.5 27t-9.5 24v321zM412 482q17 17 25.5 38.5
t8.5 43.5t-8.5 43.5t-25.5 38.5q-13 14 -30 22t-34.5 10.5t-35 0t-34.5 -10.5t-30 -22q-22 -22 -30 -52t0 -59.5t30 -52t52 -30.5t60 0t52 30zM286.5 609.5q18.5 18.5 44 18.5t44.5 -19q12 -12 16 -28t0 -32t-16 -28.5t-28 -16.5t-32 0t-28 16q-19 19 -19 45t18.5 44.5z" />
    <glyph glyph-name="uniE60B" unicode="&#xe60b;" 
d="M757 830q-55 0 -101.5 -26t-73.5 -71t-27 -98q0 -81 59 -138t143 -57q55 0 101 26t73 71t27 98q0 81 -59 138t-142 57zM756.5 484q-64.5 0 -110 44t-45.5 106.5t45.5 106.5t110.5 44q31 0 60 -11.5t50 -32t33 -48.5t12 -58q0 -63 -45.5 -107t-110 -44zM821 99q-2 1 -5 1
h-398l-18 67l335 25q10 1 16.5 7.5t6.5 16.5l29 185q-15 -2 -30 -2q-9 0 -19 1l-26 -163l-325 -24l-85 315h248q-11 22 -17 47h-242h-1h-1l-29 106q0 10 -7 16.5t-17 6.5h-148q-7 0 -12.5 -3t-8.5 -8.5t-3 -11.5q0 -5 2 -9.5t5 -7.5t7.5 -5t9.5 -2h129l151 -557h-45h-3h-2
h-9q-17 0 -32.5 -6.5t-27 -17.5t-18 -26t-6.5 -32q0 -22 11.5 -41t31 -29.5t41.5 -10.5q18 0 33.5 6.5t27 17t18 26t6.5 31.5q0 20 -9 37h10h7h335q-10 -17 -10 -37q0 -34 25 -57.5t60 -23.5t59.5 23.5t24.5 57.5q0 16 -5.5 30t-16 25t-24 18t-29.5 8zM309 -26q-7 0 -14 2
t-12.5 6t-10 9.5t-7 12.5t-2.5 14q0 9 4 17.5t10 14.5t14.5 9.5t17.5 3.5q20 0 33.5 -13t13.5 -31.5t-13.5 -31.5t-33.5 -13zM812 -26q-19 0 -32.5 13t-13.5 31q0 12 6 22.5t16.5 16.5t23.5 6q9 0 17.5 -3.5t15 -9.5t10 -14.5t3.5 -17.5t-3.5 -17t-10 -14t-15 -9.5
t-17.5 -3.5zM859 656h-80v78q0 4 -2 7t-5.5 5t-7.5 2h-15q-3 0 -5.5 -1t-4.5 -3t-3 -4.5t-1 -5.5v-78h-81q-2 0 -4.5 -0.5t-4 -2t-3 -3.5t-2 -4t-0.5 -4v-14q0 -3 1 -6t3 -4.5t4.5 -3t5.5 -1.5h81v-78q0 -5 4 -9.5t10 -4.5h15q4 0 7.5 2t5.5 5.5t2 6.5v78h80q4 0 7.5 2
t5.5 5.5t2 7.5v14q0 3 -1 5.5t-3 4.5t-5 3t-6 1z" />
    <glyph glyph-name="uniE60C" unicode="&#xe60c;" 
d="M63 432h895v-95h-895v95z" />
    <glyph glyph-name="uniE60D" unicode="&#xe60d;" 
d="M344 122h327q2 -4 4 -7l4 -6q2 -3 4.5 -6t5.5 -5v0q32 -33 77.5 -33t77.5 33q5 5 9.5 11t8.5 13h57v71h-26l-3 228h-199v180h221v-33h-16v-62h13l2 -16l-23 -30l18 -40l53 18l-9 19l-28 -10l-5 11l24 17v31h19v62h-17v33h7v70h-259v34h-75l-51 -284h-48l-2 214l-8 6h-10
h-109h-10l-8 -6q-27 -19 -50 -42t-42 -49q-7 -9 -13.5 -22.5t-11.5 -25t-11 -26.5t-10 -22h-74q-37 -28 -52 -108.5t-13 -146.5h-28v-71h88q8 -14 18 -24v0q32 -33 78 -33q45 0 77 33q3 2 5.5 5t4.5 6l4 6q2 3 4 7zM806 218q5 -6 8.5 -12t5.5 -13.5t2 -15.5q0 -23 -16 -40
q-17 -17 -40 -17q-11 0 -21 4.5t-18 12.5t-12.5 18.5t-4.5 22t4.5 22t12.5 18.5q4 4 8.5 7t9 5t10.5 3t11 1q23 0 40 -16zM288 218q16 -17 16 -41t-16 -40q-8 -8 -18 -12.5t-21 -4.5q-24 0 -40 17q-8 8 -12 18.5t-4 21.5q0 6 1 11.5t3 11t5 10t7 8.5q3 3 6.5 5.5t7.5 4.5
t8 3.5t8.5 2t9.5 0.5q23 0 39 -16zM447 448h-142q2 4 5.5 12t6 15.5t6 15.5t6.5 12q31 41 69 69h49v-124z" />
    <glyph glyph-name="uniE60E" unicode="&#xe60e;" 
d="M510 833q-72 0 -140.5 -22.5t-123.5 -64t-96.5 -96.5t-64 -123t-22.5 -141q0 -91 35.5 -174t95.5 -143t142.5 -95t173.5 -35t174 35t143 95t95.5 143t35.5 174q0 52 -12 102t-34 94t-52.5 83t-69.5 69.5t-83 52.5t-94 34t-103 12zM511 7q-103 0 -190 50.5t-138 138
t-51 190.5t51 190t138 138t190 51t190.5 -51t138.5 -138t51 -190t-51 -190.5t-138.5 -138t-190.5 -50.5z" />
    <glyph glyph-name="uniE60F" unicode="&#xe60f;" 
d="M447 832h-384v-384h384v384zM383 512h-255v256h255v-256zM575 -64h385v384h-385v-384zM63 -64h385v384h-385v-384zM128 256h254v-256h-254v256zM575 832v-384h385v384h-385zM894 512h-255v256h255v-256z" />
    <glyph glyph-name="uniE610" unicode="&#xe610;" 
d="M254 448h-192v-42h192v42zM820 191q63 44 100 112.5t37 147.5q0 43 -11.5 84t-32 75.5t-50 63.5t-64.5 49.5t-76 32t-85 11.5q-65 0 -124 -25t-101.5 -67.5t-68 -101t-25.5 -122.5t25.5 -122.5t68 -100.5t101.5 -67t124 -25q40 0 77.5 9t71.5 27l142 -170l29 24zM638 174
q-116 0 -198 81t-82 196q0 75 37.5 139t102 101t140.5 37q46 0 89 -14t77.5 -39.5t60 -59.5t40 -76.5t14.5 -87.5q0 -56 -22.5 -107.5t-60 -88.5t-89.5 -59t-109 -22zM62 576h237v41h-237v-41zM62 256h235v42h-235v-42z" />
    <glyph glyph-name="uniE611" unicode="&#xe611;" 
d="M132 362v-133h228v51zM640 65h192v-129h-192v129zM193 65h191v-129h-191v129zM139 521q16 63 54 115q56 76 147 126l10 5h321l10 -5q92 -50 147 -126q38 -52 54 -114v0q32 -7 55 -33.5t23 -59.5v-231q0 -26 -12.5 -47.5t-34.5 -34.5t-47 -13h-707q-39 0 -66.5 28
t-27.5 67v231q0 33 21 59t53 33zM286 557h110l97 155h-111zM888 362l-228 -82v-51h228v133z" />
    <glyph glyph-name="uniE612" unicode="&#xe612;" 
d="M897 -35l-149 177q69 54 108.5 133.5t39.5 170.5q0 79 -30.5 150.5t-82 123t-122.5 82t-150 30.5q-39 0 -77 -8t-72 -22.5t-65.5 -35.5t-57 -47t-46.5 -57t-35.5 -65.5t-22.5 -72.5t-8 -78q0 -105 51.5 -193.5t140 -140.5t192.5 -52q107 0 198 55l152 -180zM174 446
q0 92 45 170t123 123.5t169 45.5q69 0 131.5 -27t108 -72t72 -108t26.5 -132t-26.5 -131.5t-72 -108t-108 -72.5t-131.5 -27q-39 0 -77 9t-71.5 25.5t-62.5 40t-52 53t-40 62.5t-25.5 71.5t-8.5 77.5z" />
    <glyph glyph-name="uniE613" unicode="&#xe613;" 
d="M847 669h-84l-28 55q-13 26 -23.5 34.5t-32.5 8.5h-335q-22 0 -33 -9.5t-23 -33.5l-28 -55h-84q-30 0 -55.5 -15t-40.5 -40.5t-15 -56.5v-445q0 -46 32.5 -78.5t78.5 -32.5h671q46 0 78.5 32.5t32.5 78.5v445q0 31 -15 56.5t-40.5 40.5t-55.5 15zM902 106
q0 -23 -16 -39.5t-39 -16.5h-671q-23 0 -39 16.5t-16 39.5v445q0 23 16 39t39 16h112l28 56q4 6 9 15t7.5 14t7 11t8.5 9t10 5t14 2h279q9 0 15.5 -2.5t12 -8.5t9 -11t9.5 -16.5t10 -17.5l28 -56h112q23 0 39 -16t16 -39v-445zM512 572q-93 0 -158.5 -65t-65.5 -157
q0 -45 18 -86.5t47.5 -71t71 -47.5t87.5 -18q92 0 157.5 65.5t65.5 157.5q0 60 -30 111.5t-81.5 81t-111.5 29.5zM511.5 183q-69.5 0 -118.5 49t-49 118t49 118t119 49q45 0 83.5 -22.5t61 -61t22.5 -83.5q0 -69 -49 -118t-118.5 -49z" />
    <glyph glyph-name="uniE614" unicode="&#xe614;" 
d="M109 143l34 -206h260l36 206h39v57h-175q-4 8 -8 17.5t-7 18.5q44 -7 83 26t66 81q-24 0 -53 -6.5t-58.5 -21t-45.5 -33.5v11v12q4 63 45 115q21 -6 43 -6q43 0 80 19.5t60 53.5l34 -7q10 53 34 89l-41 27q-3 24 -13 45.5t-25.5 39t-35.5 30.5t-44 20.5t-49 7.5
q-69 0 -118 -47.5t-49 -115.5q0 -42 20.5 -78t55.5 -58q-32 -45 -43 -98q-21 30 -70.5 48t-90.5 18q18 -31 38.5 -55.5t53 -41t64.5 -8.5v-18q0 -9 1 -17.5t2.5 -17.5t3.5 -17.5t5 -16.5l6 -16h-184v-57h46zM840 689l-75 -126l-37 135l-37 134l123 -68l145 48v-100zM651 508
q20 40 64 55l-18 50q-65 -22 -95 -81zM627 402l-55 5q5 42 10 68l54 -11q-3 -14 -5.5 -29t-3.5 -33zM573 703l-34 42q11 8 23.5 16t25.5 15.5t26.5 13.5t27.5 10l18 -50q-23 -8 -45.5 -20t-41.5 -27zM607 605l-38 39q21 19 46.5 34.5t55.5 29.5l16 -52q-24 -12 -44 -24
t-36 -27zM534 402l-55 2v2v2v2v2v2v3v2v2l1 2v2v2v2v2v2v2l55 -4v-2v-2v-1v-2l-1 -2v-2v-2v-2v-2v-2v-2v-2v-2v-2v-2zM368 691q32 0 59.5 -15.5t43.5 -41.5t16 -58q0 -47 -35 -80.5t-84 -33.5q-24 0 -46 9t-38 24.5t-25 36.5t-9 44q0 32 15.5 58t43 41.5t59.5 15.5zM371 640
q17 0 31 -8t22 -22t8 -31q0 -25 -18 -42.5t-43 -17.5t-43 17.5t-18 42.5q0 17 8 31t22 22t31 8z" />
    <glyph glyph-name="uniE615" unicode="&#xe615;" 
d="M795 831h-567q-68 0 -115.5 -47.5t-47.5 -115.5v-567q0 -68 47.5 -116t115.5 -48h567q68 0 116 48t48 116v567q0 44 -22 82t-59.5 59.5t-82.5 21.5zM775 610l-283 -490q-4 -11 -10 -17q-13 -11 -30 -10.5t-28 12.5l-187 172q-11 12 -10.5 29t12.5 28.5t29 11t29 -12.5
l146 -135l261 452q4 8 10.5 12.5t14 6.5t15.5 1t16 -5q14 -8 18.5 -24.5t-3.5 -30.5z" />
    <glyph glyph-name="uniE616" unicode="&#xe616;" 
d="M796 832h-570l-162 -280v-112q0 -5 1 -10t2.5 -10.5t3 -10.5t4 -10t4.5 -9.5t5 -9.5l6 -8q3 -5 6 -9v-321q0 -46 32 -76t80 -30h606q47 0 74.5 29.5t27.5 76.5v321q5 6 9 11t8 11t7.5 11.5t6.5 12.5t6 14.5t6 16.5v112zM247 790h518l129 -235h-776zM808 -22h-604
q-24 0 -44.5 20t-20.5 44v65h736v-59q0 -24 -21.5 -47t-45.5 -23zM875 149h-736v0v192q12 -10 32 -15.5t33 -5.5q23 0 52 23t44 53q44 -76 98 -76q21 0 44.5 10t42 26.5t26.5 34.5q12 -28 42 -49.5t61 -21.5q20 0 41 11.5t37.5 29.5t27.5 40q23 -38 48.5 -59.5t61.5 -21.5
q1 0 45 9v-180zM814 388q-34 0 -66 21t-32 43h-21q0 -22 -27.5 -43t-58.5 -21t-59 21t-28 43h-21q0 -21 -34 -42.5t-66 -21.5q-34 0 -64.5 19t-30.5 45h-21q0 -22 -28.5 -43.5t-58.5 -21.5q-33 0 -59.5 18.5t-26.5 46.5v61h799v-61q-1 -27 -33 -45.5t-64 -18.5z" />
    <glyph glyph-name="uniE617" unicode="&#xe617;" 
d="M871 733q-53 0 -100.5 5.5t-80.5 14t-61 19.5t-44.5 21t-28.5 19.5t-16 14t-5 5.5h-45q-1 -3 -9.5 -11.5t-34.5 -24t-61 -29.5t-97 -24t-136 -10h-24v-492q0 -36 16 -70t41 -60.5t58.5 -51t67 -42t68 -32.5t59.5 -23.5t44.5 -15t20.5 -6.5l9 -5l10 5q1 0 20 6.5t44.5 15
t60 23.5t68 32.5t66.5 42t58 51t41 60.5t16 70v492h-25zM847 241q0 -36 -21.5 -69.5t-53 -57.5t-73.5 -46.5t-76 -35.5l-68 -26q-34 -13 -43 -17q-15 7 -56.5 24.5t-73 31t-72.5 36.5t-68 45t-46 52.5t-19 62.5v443q128 3 215.5 33t119.5 64q14 -15 41 -30.5t67.5 -30.5
t100 -25t126.5 -11v-443zM477 631q4 -7 7.5 -13.5t7 -12.5t6.5 -12h-208v-34h447v34h-196q-8 15 -15 28.5t-14 26.5zM623 535l-34 21q-20 -34 -43 -65h-103l24 17q-16 22 -40 50l-27 -19q18 -24 34 -48h-114v-318h34v285h315v-208q0 -34 -29 -34q-23 0 -60 4q3 -13 7 -41h64
q52 0 52 61v251h-116q15 18 36 44zM457 452q-24 -23 -48 -43t-49 -38q4 -4 9.5 -11t11.5 -17q24 18 49 39t51 45zM659 381q-17 13 -42.5 31t-59.5 40l-20 -26q27 -18 52 -37t47 -38zM604 375h-183v-154h33v25h150v129v0zM572 277h-118v67h118v-67z" />
    <glyph glyph-name="uniE618" unicode="&#xe618;" 
d="M929 490l-69 -40q7 -35 7 -65t-7 -65l69 -41q14 -8 22 -22t8 -29t-8 -30l-59 -104q-12 -21 -36 -27.5t-45 6.5l-70 40q-52 -44 -111 -65v-51q0 -12 -5 -23t-12.5 -19t-18.5 -13t-23 -5h-119q-24 0 -41.5 17.5t-17.5 42.5v51q-59 21 -111 65l-70 -40q-11 -7 -22.5 -8
t-22.5 1.5t-20.5 10t-15.5 17.5l-59 104q-8 15 -8 30t7.5 29t21.5 22l70 41q-7 35 -7 65q0 16 2 32t5 33l-70 40q-21 13 -27.5 37t6.5 45l59 103q12 22 35.5 28.5t45.5 -6.5l70 -41q25 22 53 38.5t58 27.5v51q0 25 17.5 42.5t41.5 17.5h119q16 0 29.5 -8t21.5 -22t8 -30v-51
q15 -5 30 -12t29 -15.5t27 -18t25 -20.5l70 41q21 13 45 6.5t36 -28.5l59 -103q12 -21 6 -45t-28 -37zM885 568l-29 52q-7 10 -18.5 13.5t-22.5 -2.5l-82 -48q-66 75 -162 94v66q0 12 -9 21t-21 9h-59q-12 0 -21 -9t-9 -21v-66q-96 -19 -162 -94l-82 48q-11 6 -23 2.5
t-18 -13.5l-29 -52q-6 -11 -3 -23t14 -18l82 -48q-16 -47 -16 -94q0 -8 0.5 -16.5t1.5 -16.5t2.5 -15.5t3 -15.5t4 -15.5t4.5 -14.5l-82 -48q-11 -7 -14 -18.5t3 -22.5l29 -52q6 -11 18 -14t23 3l82 48q32 -36 73.5 -60.5t88.5 -34.5v-65q0 -3 0.5 -5.5t1 -4.5t2 -4t2.5 -4
t2.5 -3.5t3.5 -3t4 -2.5t4.5 -1.5t4.5 -1t5 -0.5h59q12 0 21 8.5t9 21.5v65q47 10 88.5 34.5t73.5 60.5l82 -48q11 -6 22.5 -3t18.5 14l29 52q6 11 3 22.5t-14 18.5l-82 48q15 47 15 94t-15 94l82 48q11 6 14 18t-3 23zM511.5 236q-61.5 0 -105 43.5t-43.5 105.5
q0 24 7.5 47t21.5 41t32 32t40.5 21.5t46.5 7.5q21 0 40 -5.5t35 -15t30 -23t23.5 -30t14.5 -36t5 -39.5q0 -62 -43 -105.5t-104.5 -43.5zM511 474q-36 0 -62 -26t-26 -63t26 -63.5t62 -26.5q25 0 45 12t32 33t12 45q0 18 -7 34.5t-19 28.5t-28.5 19t-34.5 7z" />
    <glyph glyph-name="uniE619" unicode="&#xe619;" 
d="M63 102q0 -42 29.5 -72t71.5 -30h692q27 0 51 13.5t37.5 37t13.5 51.5v362h-896zM123 403h774v-301q0 -18 -12.5 -30t-29.5 -12h-691q-11 0 -20.5 5.5t-15.5 15t-6 21.5zM856 704h-692q-20 0 -39 -8t-32.5 -21.5t-21.5 -32.5t-8 -39l-1 -109h896v109q0 42 -30 71.5
t-72 29.5zM123 554l-1 49q0 17 12.5 29t29.5 12h691q28 0 39 -26l3 -15v-49h-774zM423 183h-211v-60h211v60zM603 303h-391v-60h391v60z" />
    <glyph glyph-name="uniE61A" unicode="&#xe61a;" 
d="M487 833h37v-113l54 -67l73 -94h-147h-146l73 94l56 71v109zM269 9h77v505h319v-505h61v407h140v-407h93v-72h-894v614l204 -120v-422zM517 156v-57h44v57h-44zM120 242h-27v-35zM222 181v-34h27v34h-27zM222 364v-35h27v35h-27zM179 364v-35h27v35h-27zM135 181v-34h27
v34h-27zM135 303v-34h27v34h-27zM93 364v-35h27v35h-27zM751 231v-42h33v42h-33zM751 157v-43h33v43h-33zM751 383v-43h33v43h-33zM803 308v-42h33v42h-33zM803 383v-43h33v43h-33zM382 156v-57h44v57h-44zM382 357v-57h44v57h-44zM583 357v-57h44v57h-44zM517 357v-57h44
v57h-44zM450 357v-57h45v57h-45zM382 457v-57h44v57h-44zM583 457v-57h44v57h-44zM517 457v-57h44v57h-44zM382 255v-57h44v57h-44zM583 255v-57h44v57h-44z" />
    <glyph glyph-name="uniE61B" unicode="&#xe61b;" 
d="M735 262l53 -323l-276 153l-277 -153l53 323l-223 228l308 48l139 294l138 -294l308 -48zM615 488l-103 224l-105 -224l-242 -31l179 -182l-40 -235l208 116l204 -117l-37 235l177 180z" />
    <glyph glyph-name="uniE61C" unicode="&#xe61c;" 
d="M786 -18h-148v270h-1v3h-253v-273h-150v491h-44v-535h238v273h166v-273h237v535h-45v-491zM516 832h-19l-437 -362l27 -36l424 348l423 -338l23 34z" />
    <glyph glyph-name="uniE61D" unicode="&#xe61d;" 
d="M63 432h895v-95h-895v95zM462 832h96v-895h-96v895z" />
    <glyph glyph-name="uniE61E" unicode="&#xe61e;" 
d="M456 610q-35 1 -64 -19t-34 -50l34 -78q12 -10 49.5 -32.5t49.5 -34.5h-197h-10q-21 0 -36 -15.5t-15 -36.5q0 -33 30 -47q-12 -6 -19 -18t-7 -26q0 -12 5 -22.5t14 -17.5t20 -10q-13 -15 -13 -33q0 -14 7 -26t19 -19t26 -7h1q-14 -15 -14 -36t15 -36t36 -15h100h126h2
l45 45l142 14v-65h191v396h-191v-50h-66q-9 33 -36 58.5t-59.5 42t-64 33.5t-56 43t-30.5 62zM335 615l-23 -23l78 -179h-127l-58 132q-22 -2 -44 0.5t-43.5 11.5t-38.5 23q-26 98 -3 187q3 2 8 3.5t9.5 3.5t7.5 3q10 -25 16 -41t14.5 -38t15.5 -41q70 -4 120 46
q-3 10 -7.5 20.5t-7.5 19t-7.5 21t-7 19t-8 21t-7.5 19.5q4 2 12.5 5t12.5 5q24 -16 44 -34.5t40.5 -46t37.5 -61.5q-6 -42 -34 -76zM450 9l21 -48q10 -18 37.5 -22.5t52 7t28.5 33.5l-13 30h-126z" />
    <glyph glyph-name="uniE61F" unicode="&#xe61f;" 
d="M840 507q0 88 -44 163t-119.5 118.5t-165 43.5t-165 -43.5t-119.5 -118.5t-44 -163q0 -22 3 -44t8.5 -42.5t14 -39.5t18.5 -37l284 -408l285 408q44 75 44 163zM511 344q-44 0 -82 21.5t-60 59t-22 82.5q0 67 48 115t116 48q34 0 64.5 -13t52.5 -35t35 -52t13 -63
q0 -68 -48 -115.5t-117 -47.5z" />
    <glyph glyph-name="uniE620" unicode="&#xe620;" 
d="M511 262q145 0 255.5 -92.5t136.5 -233.5h55q-15 95 -67 174t-131 131t-173 68q81 28 132 98t51 157q0 32 -7 62t-20.5 56.5t-32 50t-42 42t-50 32t-56.5 20.5t-62 7q-73 0 -135 -36t-98 -98.5t-36 -135.5q0 -89 52.5 -160t136.5 -97q-138 -28 -235.5 -130t-120.5 -241
h55q26 141 136.5 233.5t255.5 92.5zM285 564.5q0 89.5 63 152.5t152.5 63t152.5 -63t63 -152.5t-63 -153t-152.5 -63.5t-152.5 63.5t-63 153z" />
    <glyph glyph-name="uniE621" unicode="&#xe621;" 
d="M859 -59q-3 -1 -7.5 -2t-9.5 -1t-10.5 0.5t-10 2t-7.5 3.5l-302 281l-304 -280q-7 -6 -24.5 -6t-23.5 5q-14 8 -22.5 22.5t-8.5 32.5v769q0 13 5 24.5t13.5 20.5t20.5 14t25 5h639q17 0 32 -8.5t23.5 -23.5t8.5 -32v-769q0 -40 -37 -58zM832 736q0 13 -9.5 22.5
t-22.5 9.5h-575q-14 0 -23 -9.5t-9 -22.5v-64h639v64zM193 608v-568l290 269q6 5 13.5 7.5t14.5 1.5q8 1 15.5 -1.5t13.5 -7.5l292 -272v571h-639z" />
    <glyph glyph-name="uniE622" unicode="&#xe622;" 
d="M799 401h-118q-11 0 -19.5 -8t-8.5 -20t8.5 -20t19.5 -8h118q14 0 27.5 -4t25 -10.5t21 -16t16.5 -21t10.5 -25.5t3.5 -28v-141q0 -44 -30.5 -74.5t-73.5 -30.5h-574q-44 0 -74.5 30.5t-30.5 74.5v141q0 56 46 87q23 16 50 18q-28 -49 -28 -106q0 -12 8 -20t20 -8h4
q6 -3 13 -3h557q12 0 20 8t8 20q0 4 -1 7.5t-3 6.5t-4.5 5.5t-5.5 4.5t-6.5 3t-7.5 1h-185q-9 79 -68.5 132t-139.5 53q-75 0 -133 -48h-2h-37q-49 0 -90 -27q-33 -23 -52 -58.5t-19 -75.5v-141q0 -67 47 -114t114 -47h574q66 0 113 47t47 114v141q0 19 -4 37t-12 34t-19 30
t-25 25t-30 19t-34 12t-36 4zM397.5 393q37.5 0 70 -17t54 -46.5t27.5 -65.5h-303q6 36 27 65.5t54 46.5t70.5 17zM685 467q30 0 55.5 14.5t40 40t14.5 55.5q0 46 -32 78.5t-78 32.5q-29 0 -54.5 -15t-40 -40.5t-14.5 -55.5q0 -45 32 -77.5t77 -32.5zM685 631q15 0 27.5 -7
t19.5 -19.5t7 -27.5q0 -5 -1 -10.5t-3 -10.5t-5 -9.5t-6.5 -8t-8 -6.5t-9 -5t-10 -3t-11.5 -1q-5 0 -9.5 1t-9 2.5t-8.5 4t-7.5 5.5t-6.5 6.5t-5.5 7.5t-4 8.5t-2.5 9t-1 9.5t1 9l2 8q1 4 3 8t4.5 7.5t5.5 6.5t7 5l6 4q4 2 8 3.5t8.5 2t8.5 0.5zM349 518q64 0 110 46t46 111
q0 25 -8 49t-22.5 43t-33.5 33.5t-43 22.5t-49 8q-64 0 -110 -46t-46 -110q0 -26 8 -50t22.5 -43t33.5 -33.5t43 -22.5t49 -8zM349 775q41 0 70.5 -29.5t29.5 -71t-29.5 -71t-70.5 -29.5t-70.5 29.5t-29.5 71t29.5 71t70.5 29.5z" />
    <glyph glyph-name="uniE623" unicode="&#xe623;" 
d="M64 -63v280h25l-5 51l57 61h-77v55h113v-14l92 112h486l96 -117v19h109v-54h-79l59 -62l-6 -50l26 -1v-280h-158v52h-579v-52h-159zM235 832h543l27 -65h-32l23 -63l-47 -18l-31 81h-56l13 -77l-50 -9l-14 86h-83v-83h-51v83h-76l-14 -86l-50 9l12 77h-56l-30 -81l-48 18
l24 63h-31zM865 527l-48 -18l38 -97l47 18zM811 666l-48 -18l38 -97l47 18zM682 649l-50 -8l17 -103l50 8zM147 527l-37 -97l47 -18l37 97zM201 666l47 -18l-37 -97l-47 18zM330 649l50 -8l-17 -103l-50 8zM477 643h51v-104h-51v104zM145 238l17 -80h180l-6 28zM243 111
l16 -65h493l16 65h-525zM880 238l-191 -52l-6 -28h180zM227 347q286 2 570 0l-71 92h-428z" />
    <glyph glyph-name="uniE624" unicode="&#xe624;" 
d="M512 -62l-22 22q-20 20 -77 64q-53 42 -94 74q-109 88 -182 183.5t-73 208.5q0 85 39 165t100.5 128t123.5 48q108 0 185 -89q77 89 185 89q37 0 75.5 -18.5t72 -51t59.5 -74.5t41 -93t15 -102t-18.5 -103.5t-45 -92.5t-64 -81t-66.5 -66.5t-62 -50.5q-9 -7 -53 -41
q-57 -44 -78 -61t-40 -36zM327 770q-48 0 -95 -41t-77.5 -106.5t-30.5 -132.5q0 -50 20.5 -100t58 -94.5t72.5 -78.5t81 -70q41 -33 94 -74q17 -13 25 -19t18.5 -15t18.5 -15q23 21 103 82q12 9 25 19.5t28 21.5q46 36 84 72t73 80.5t54.5 94t19.5 98.5q0 50 -18 100.5
t-46 89.5t-65 63.5t-73 24.5q-97 0 -160 -96l-25 -38l-25 38q-31 46 -72 71t-88 25z" />
    <glyph glyph-name="uniE625" unicode="&#xe625;" 
d="M755 767l-419 -383l419 -383q11 -11 11 -26.5t-11 -26.5t-26.5 -11t-26.5 11l-446 408q-11 11 -11 28t11 28l446 408q11 11 26.5 11t26.5 -11t11 -26.5t-11 -26.5z" />
    <glyph glyph-name="uniE626" unicode="&#xe626;" 
d="M582 257v576h-140v-576h-186l256 -319l256 319h-186z" />
    <glyph glyph-name="uniE627" unicode="&#xe627;" 
d="M267 820q11 11 26.5 11t26.5 -11l447 -408q11 -11 10 -28v-6q0 -2 -0.5 -4.5t-1.5 -5t-2 -4.5t-3 -4t-3 -4l-447 -408q-11 -11 -26.5 -11t-26.5 11t-11 26.5t11 26.5l420 383l-420 383q-4 4 -7 9.5t-3.5 11.5t0 11.5t3.5 11t7 9.5z" />
    <glyph glyph-name="uniE628" unicode="&#xe628;" 
d="M512 831l147 -262l301 -87l-209 -247l38 -298l-277 127l-277 -127l38 298l-210 247l301 87z" />
    <glyph glyph-name="uniE629" unicode="&#xe629;" 
d="M512 831q-73 0 -141 -22.5t-123.5 -64t-96.5 -96.5t-64 -123t-23 -141t23 -141.5t64 -123.5t96.5 -96.5t123.5 -64t141 -22.5q91 0 174 35.5t143 95.5t95.5 143t35.5 174t-35.5 174t-95.5 142.5t-143 95t-174 35.5zM524 230l-72 -70l-71 70l-167 165l71 70l167 -164
l287 282l71 -71z" />
    <glyph glyph-name="uniE62A" unicode="&#xe62a;" 
d="M477 546l147 44v104h207v-230v-481q0 -10 -4 -18.5t-10 -14.5t-14.5 -9.5t-18.5 -3.5h-483q-7 0 -14 2t-12.5 6.5t-10 10t-7 12.5t-2.5 15v55q27 -10 55.5 -13t56.5 1t54.5 14t50 27t42 39.5t31.5 52.5t19 65q12 82 -20 179q-22 68 -67 143zM339 627q-3 -3 -8 -9t-19 -25
t-27.5 -38.5t-31.5 -48t-32 -56t-27 -60.5t-20 -63t-7 -62t9 -59q13 -40 41 -68t61.5 -39.5t70 -9t67.5 19t54 49t29 75.5q8 51 -7 111t-37 105t-53 91.5t-43.5 62t-19.5 24.5v0zM250 374q-19 -39 -22 -77.5t8.5 -69.5t42 -50.5t75.5 -19.5q-28 29 -46.5 58t-31 64.5
t-26.5 94.5zM576 834h292v-98h-292v98z" />
    <glyph glyph-name="uniE62B" unicode="&#xe62b;" 
d="M767 514l-256 318l-256 -318h186v-577h140v577h186z" />
    <glyph glyph-name="uniE62C" unicode="&#xe62c;" horiz-adv-x="1024" 
d="M526 848q-61 0 -119 -16t-106.5 -44.5t-90 -70t-70.5 -90.5t-45 -107t-16 -118q0 -91 35.5 -174t95.5 -142.5t142.5 -95t173.5 -35.5t173.5 35.5t142.5 95t95 142.5t35 174q0 72 -22.5 140.5t-63.5 123.5t-96 96t-123 63.5t-141 22.5zM526 51q-95 0 -176 47t-128 128
t-47 176t47 175.5t128 127.5t176 47t176 -47t128 -127.5t47 -175.5q0 -72 -28 -136.5t-75 -111.5t-112 -75t-136 -28zM526 712q-129 0 -220 -91t-91 -219.5t91 -219.5t220 -91t220 91t91 219.5t-91 219.5t-220 91zM752 305v1l-113 74q0 3 1 5v4q1 2 1 4v5v4q0 10 -2 21
l113 74v1q20 -46 20 -96t-20 -97zM721 551h-1l-120 -62q-3 3 -6.5 5.5t-7.5 4.5l-6 4q-4 2 -7.5 3.5t-7.5 3.5l-7 135v0q49 -6 91 -30.5t72 -63.5zM526 347q-23 0 -39 16t-16 38.5t16 38.5t39 16q15 0 27.5 -7t20 -19.5t7.5 -27.5q0 -9 -3 -17.5t-8 -15t-12 -12t-15 -8
t-17 -2.5zM496 646v-1l-8 -135q-20 -7 -37 -21l-121 60v0q29 40 72.5 65.5t93.5 31.5zM299 496v-1l114 -73q-2 -12 -2 -20q0 -5 0.5 -10t1.5 -11l-114 -73v0q-6 14 -10.5 29.5t-6.5 31.5t-2 33q0 49 19 94zM330 254v0l121 61q17 -14 37 -22l8 -134v-1q-103 12 -166 96z
M558 158v1l7 135q19 7 35 20l120 -62h1q-30 -38 -72 -63t-91 -31z" />
    <glyph glyph-name="uniE62D" unicode="&#xe62d;" horiz-adv-x="1024" 
d="M551 61h-23h-16h-6h-7q-3 0 -8 -1.5t-7 -3.5q-17 -17 -45.5 -25.5t-66.5 -8.5q-47 0 -89 17q-17 9 -25 18t-8 21t9 21.5t30 17.5q22 7 22 22q0 23 -5.5 28.5t-14 19.5t-13.5 19q-2 4 -5.5 7.5t-7 5.5t-7.5 3t-8 1q-5 0 -9 -1.5t-10.5 -5t-8.5 -4.5q-17 -17 -22 -17
q-3 0 -5.5 5t-4 15.5t-1.5 23.5q0 28 11 95q8 26 21.5 47.5t33.5 41.5q11 11 11 28v11q0 25 17 51q2 1 3.5 3.5t2 4.5t0.5 3v5v6q0 34 7.5 63.5t23.5 57t41 52.5q65 72 167 72q34 0 64 -7.5t57 -23.5t52 -41q35 -40 54 -82.5t19 -90.5v-6q0 -11 5 -16q9 -13 13 -25.5
t4 -25.5v-11q0 -22 11 -28q39 -39 56 -89q19 -56 11 -94q0 -37 -17 -45q-2 0 -4 1t-5 3.5t-6 4.5l-7 8q-3 3 -7.5 5.5t-10 4t-10.5 1.5h-5q-20 0 -28 -17q-4 -11 -10.5 -19.5t-17.5 -19.5q-13 -13 -6 -28q0 -5 2.5 -8.5t8 -8t6.5 -5.5q39 -16 39 -39q0 -22 -34 -39
q-16 -8 -39.5 -12.5t-49.5 -4.5q-69 0 -111 34q5 0 -2 3l-9 2v0zM679 -45q83 0 134 34q55 37 55 89q0 31 -16 56q16 0 22 5q47 16 56 84q8 58 -17 133q-8 28 -23 53.5t-38 52.5q0 37 -17 78q0 129 -89 218q-46 45 -100 67t-118 22q-128 0 -217 -89q-28 -32 -47.5 -65.5
t-30.5 -72.5t-11 -80q-6 -11 -9.5 -23.5t-5.5 -26.5t-2 -28v-5q-38 -32 -61 -100q-25 -76 -17 -134v-2l1 -1v-2v-2v-1l1 -2v-1v-2l1 -1v-2v-2l1 -1v-2l1 -1v-2l1 -1v-2l1 -1v-2l1 -1v-2l1 -1v-2l1 -1l1 -2v-1q17 -32 45 -44q2 0 6.5 -1.5t9 -2.5t6.5 -1q-17 -25 -17 -56
q0 -57 56 -89q50 -34 128 -34q93 0 140 39h28q11 -8 23.5 -14.5t26 -11t27.5 -7.5t29.5 -4.5t32.5 -1.5v0z" />
    <glyph glyph-name="uniE62E" unicode="&#xe62e;" horiz-adv-x="1024" 
d="M582 360.5q0 45.5 -17.5 87t-48 71.5t-71.5 47.5t-87 17.5q-15 0 -29.5 -2t-28.5 -6t-28 -9q-41 -18 -71.5 -48t-48 -71.5t-17.5 -87t17.5 -86.5t48 -71t71.5 -48t86.5 -18t86.5 18t71.5 48t48 71t17.5 86.5zM917 361q0 45 -17.5 86.5t-47.5 71.5t-71.5 47.5t-86.5 17.5
h-169q52 -39 82.5 -97.5t30.5 -125.5t-30.5 -125.5t-82.5 -98.5h169q15 0 29.5 2t29 6t27.5 10q42 18 72 48t47.5 71t17.5 87v0zM973 361q0 -57 -22.5 -108.5t-59.5 -89t-89 -59.5t-108 -22h-336q-56 0 -108 22t-89 59.5t-59.5 89t-22.5 108.5t22.5 108.5t59.5 89t89 59.5
t108 22h336q28 0 55 -5.5t53 -16.5q52 -22 89.5 -59.5t59.5 -89t22 -108.5z" />
    <glyph glyph-name="uniE62F" unicode="&#xe62f;" horiz-adv-x="1024" 
d="M910 434q-76 118 -190 176q30 -52 30 -112q0 -93 -65.5 -158.5t-158 -65.5t-158 65.5t-65.5 158.5q0 60 31 112q-115 -58 -191 -176q67 -102 167 -163t217 -61t217 61t166 163zM551 626q0 10 -7 17t-17 6q-63 0 -107.5 -44.5t-44.5 -106.5q0 -5 1.5 -9.5t5.5 -7.5
q2 -2 4 -3.5t4 -1.5l4 -2h5q10 0 17 7t7 17q0 43 30.5 73.5t73.5 30.5q10 0 17 7t7 17zM974 434q0 -17 -10 -35q-70 -114 -188 -183.5t-249.5 -69.5t-249 69.5t-187.5 183.5q-10 18 -10 35t10 34q70 115 187.5 184t249 69t249.5 -69t188 -184q2 -4 4 -8.5t3.5 -8.5t2 -8.5
t0.5 -8.5z" />
    <glyph glyph-name="uniE630" unicode="&#xe630;" horiz-adv-x="1024" 
d="M831 293q0 -14 -12 -25t-28 -11h-558q-16 0 -28 10.5t-12 25.5q0 7 3 13.5t9 11.5l279 249q12 10 28 10t28 -10l279 -249q6 -5 9 -11.5t3 -13.5z" />
    <glyph glyph-name="uniE631" unicode="&#xe631;" horiz-adv-x="1024" 
d="M512 671v160l-229 -228l229 -229v206q113 0 193.5 -81t80.5 -194t-80.5 -194t-194 -81t-194 81t-80.5 194h-92q0 -99 49.5 -183.5t133.5 -133.5t183.5 -49t183.5 49t133.5 133.5t49.5 183.5t-49.5 183.5t-133.5 133.5t-183 49z" />
    <glyph glyph-name="uniE632" unicode="&#xe632;" horiz-adv-x="1024" 
d="M65 345q0 57 22 108.5t59.5 88.5t89 59.5t108.5 22.5h335q56 0 108 -22.5t89 -59.5t59.5 -88.5t22.5 -108.5t-22.5 -108.5t-59.5 -89t-89 -59.5q-17 -7 -35 -12t-36 -7.5t-37 -2.5h-335q-57 0 -108.5 22t-89 59.5t-59.5 89t-22 108.5zM679 122q45 0 86 17.5t71.5 47.5
t48 71.5t17.5 86.5t-17.5 86.5t-48 71.5t-71.5 47.5t-86.5 17.5t-86.5 -17.5t-71 -47.5t-47.5 -71.5t-17.5 -86.5t17.5 -86.5t47.5 -71.5t71 -47.5t87 -17.5z" />
    <glyph glyph-name="uniE633" unicode="&#xe633;" horiz-adv-x="1024" 
d="M510 832q-91 0 -173.5 -35t-142.5 -95t-95.5 -143t-35.5 -174q0 -73 22.5 -141t64 -123t96.5 -96.5t123 -64t141 -22.5t141.5 22.5t123 64t96 96.5t64 123t22.5 141q0 61 -16 119t-44.5 107t-70 90.5t-90.5 70t-107 44.5t-119 16zM510 -17q-109 0 -202 54t-146.5 146.5
t-53.5 201.5q0 55 14.5 107t40.5 96.5t63 81.5t81 63t96 40.5t107 14.5q82 0 156.5 -32t128.5 -86t86 -128.5t32 -156.5q0 -157 -107 -272q-104 -113 -256 -128q-20 -2 -40 -2zM510 229q-9 0 -17 -3.5t-14 -9.5t-10 -14.5t-4 -17.5q0 -7 2.5 -14t6.5 -12.5t9.5 -9.5
t12.5 -6.5t14 -2.5q19 0 32 13.5t13 31.5q0 12 -6 22.5t-16.5 16.5t-22.5 6zM510.5 631q-55.5 0 -95 -39t-39.5 -95h45q0 37 26 63t63 26q15 0 28.5 -4.5t24.5 -12.5t19.5 -19t13 -24.5t4.5 -28.5q0 -18 -7.5 -34.5t-19.5 -28.5t-28.5 -19t-34.5 -7q-10 0 -22 3v-115
q0 -9 6.5 -16t15.5 -7q4 0 7.5 1.5t6 3.5t4.5 4.5t3.5 6t1.5 7.5v69q47 8 79 45.5t32 86.5q0 56 -39 95t-94.5 39z" />
    <glyph glyph-name="uniE635" unicode="&#xe635;" horiz-adv-x="1024" 
d="M526 848q-61 0 -119 -16t-106.5 -44.5t-90 -70t-70.5 -90.5t-45 -107t-16 -118q0 -91 35.5 -174t95.5 -142.5t142.5 -95t173.5 -35.5t173.5 35.5t142.5 95t95 142.5t35 174q0 72 -22.5 140.5t-63.5 123.5t-96 96t-123 63.5t-141 22.5zM526 51q-95 0 -176 47t-128 128
t-47 176t47 175.5t128 127.5t176 47t176 -47t128 -127.5t47 -175.5q0 -72 -28 -136.5t-75 -111.5t-112 -75t-136 -28zM526 712q-129 0 -220 -91t-91 -219.5t91 -219.5t220 -91t220 91t91 219.5t-91 219.5t-220 91zM752 305v1l-113 74q0 3 1 5v4q1 2 1 4v5v4q0 10 -2 21
l113 74v1q20 -46 20 -96t-20 -97zM721 551h-1l-120 -62q-3 3 -6.5 5.5t-7.5 4.5l-6 4q-4 2 -7.5 3.5t-7.5 3.5l-7 135v0q49 -6 91 -30.5t72 -63.5zM526 347q-23 0 -39 16t-16 38.5t16 38.5t39 16q15 0 27.5 -7t20 -19.5t7.5 -27.5q0 -9 -3 -17.5t-8 -15t-12 -12t-15 -8
t-17 -2.5zM496 646v-1l-8 -135q-20 -7 -37 -21l-121 60v0q29 40 72.5 65.5t93.5 31.5zM299 496v-1l114 -73q-2 -12 -2 -20q0 -5 0.5 -10t1.5 -11l-114 -73v0q-6 14 -10.5 29.5t-6.5 31.5t-2 33q0 49 19 94zM330 254v0l121 61q17 -14 37 -22l8 -134v-1q-103 12 -166 96z
M558 158v1l7 135q19 7 35 20l120 -62h1q-30 -38 -72 -63t-91 -31z" />
    <glyph glyph-name="uniE63C" unicode="&#xe63c;" horiz-adv-x="1024" 
d="M510 832q-91 0 -173.5 -35t-142.5 -95t-95.5 -143t-35.5 -174q0 -73 22.5 -141t64 -123t96.5 -96.5t123 -64t141 -22.5t141.5 22.5t123 64t96 96.5t64 123t22.5 141q0 61 -16 119t-44.5 107t-70 90.5t-90.5 70t-107 44.5t-119 16zM510 -17q-109 0 -202 54t-146.5 146.5
t-53.5 201.5q0 55 14.5 107t40.5 96.5t63 81.5t81 63t96 40.5t107 14.5q82 0 156.5 -32t128.5 -86t86 -128.5t32 -156.5q0 -157 -107 -272q-104 -113 -256 -128q-20 -2 -40 -2zM510 229q-9 0 -17 -3.5t-14 -9.5t-10 -14.5t-4 -17.5q0 -7 2.5 -14t6.5 -12.5t9.5 -9.5
t12.5 -6.5t14 -2.5q19 0 32 13.5t13 31.5q0 12 -6 22.5t-16.5 16.5t-22.5 6zM510.5 631q-55.5 0 -95 -39t-39.5 -95h45q0 37 26 63t63 26q15 0 28.5 -4.5t24.5 -12.5t19.5 -19t13 -24.5t4.5 -28.5q0 -18 -7.5 -34.5t-19.5 -28.5t-28.5 -19t-34.5 -7q-10 0 -22 3v-115
q0 -9 6.5 -16t15.5 -7q4 0 7.5 1.5t6 3.5t4.5 4.5t3.5 6t1.5 7.5v69q47 8 79 45.5t32 86.5q0 56 -39 95t-94.5 39z" />
    <glyph glyph-name="uniE63D" unicode="&#xe63d;" horiz-adv-x="1024" 
d="M512 121q6 0 11.5 3t8.5 8.5t3 11.5v322q0 3 -0.5 6t-2 5.5t-4 4.5t-5 3.5t-5.5 2.5t-6 1q-9 0 -16 -7t-7 -16v-322q0 -10 7 -16.5t16 -6.5zM650 121q10 0 16.5 6.5t6.5 16.5v322q0 2 -0.5 4.5t-1.5 4.5t-2 3.5t-2.5 3t-3.5 3t-4 2.5t-4.5 1.5t-4.5 0.5q-9 0 -16 -7
t-7 -16v-322q0 -4 1 -7.5t4 -6.5l4 -4q3 -3 6.5 -4t7.5 -1zM374 121q10 0 16.5 6.5t6.5 16.5v322q0 3 -1 6.5t-3 6.5t-5 5t-6.5 3.5t-7.5 1.5q-9 0 -16 -7t-7 -16v-322q0 -3 1 -6t2.5 -5.5t3.5 -4.5t4.5 -3.5t5.5 -2.5t6 -1zM834 741h-138v46q0 8 -2.5 15t-6.5 12.5t-9.5 10
t-12.5 6.5t-15 2h-276q-12 0 -22.5 -6t-17 -16.5t-6.5 -23.5v-46h-138q-12 0 -22.5 -6t-17 -16.5t-6.5 -22.5v-46q0 -13 6.5 -23.5t17 -16.5t22.5 -6v-575q0 -38 27 -65t65 -27h460q38 0 65 27t27 65v575q19 0 32.5 13t13.5 33v46q0 19 -13.5 32t-32.5 13zM374 767
q0 9 7 15.5t16 6.5h230q10 0 16.5 -6.5t6.5 -15.5v-23h-276v23zM788 29q0 -19 -13.5 -32.5t-32.5 -13.5h-460q-12 0 -22.5 6t-17 17t-6.5 23v575h552v-575zM811 650h-598q-9 0 -16 6.5t-7 16.5q0 6 3.5 11t8.5 8.5t11 3.5h598q9 0 16 -7t7 -16.5t-7 -16t-16 -6.5z" />
  </font>
</defs>
</svg>
